<svg xmlns="http://www.w3.org/2000/svg" xmlns:xlink="http://www.w3.org/1999/xlink" id="Layer_1" x="0px" y="0px" viewBox="0 0 425.65 425.65" style="enable-background:new 0 0 425.65 425.65;" xml:space="preserve"><g>	<path d="M416.66,356.15c-1.1,3.8-1.77,7.79-3.36,11.37c-7.67,17.19-21,26.76-39.86,27.51c-14.05,0.56-28.13,0.14-42.2,0.14  c-92.11,0-184.22,0.01-276.33-0.01c-22.23,0-40.02-13.51-44.75-34.44c-1.21-5.35-1.17-11.05-1.15-16.59  c0.02-4.62,3.24-7.49,7.91-7.85c1.68-0.13,3.39-0.02,5.5-0.02c0-1.91,0-3.46,0-5.01c0-67.69-0.01-135.38,0.01-203.07  c0-16.54,8.58-28.54,23.63-32.77c3.27-0.92,6.8-1.21,10.21-1.25c13.93-0.13,27.87-0.06,41.81-0.06c1.43,0,2.87,0,4.78,0  c0-1.7,0-3.11,0-4.52c0-16.06-0.01-32.12,0.01-48.18c0-1.58,0.01-3.21,0.35-4.74c0.83-3.73,4.15-6.29,7.74-6.21  c3.49,0.07,6.61,2.51,7.42,6.1c0.38,1.66,0.38,3.42,0.38,5.13c0.02,45.66,0.02,91.31,0.02,136.97c0,1.43,0,2.85,0,4.65  c1.81,0,3.23,0,4.66,0c71.67,0,143.34-0.02,215.01,0.06c2.9,0,4.9-0.83,6.92-2.89c15.4-15.57,30.93-31.01,46.38-46.53  c11.97-12.01,11.97-26.16,0.03-38.17c-15.54-15.62-31.14-31.18-46.62-46.85c-1.94-1.96-3.88-2.68-6.61-2.68  c-52.96,0.08-105.91,0.06-158.87,0.06c-7.29,0-11.1-2.67-11.19-7.84c-0.1-5.29,3.82-8.08,11.35-8.08  c54.15,0,108.3,0.04,162.45-0.07c4.75-0.01,8.31,1.44,11.62,4.81c14.42,14.68,28.81,29.38,43.59,43.68  c9.35,9.04,17.4,18.56,19.14,32.02c0,2.65,0,5.31,0,7.96c-1.73,8.82-4.43,17.22-11.05,23.73c-1.96,1.93-2.55,3.98-2.55,6.69  c0.07,60.79,0.06,121.58,0.06,182.37c0,1.43,0,2.85,0,4.67c5.72-0.52,10.7,0.15,13.54,5.55  C416.66,346.59,416.66,351.37,416.66,356.15z M68.1,140.31c0,65.56,0,130.65,0,195.73c96.61,0,192.92,0,289.62,0  c0-1.74,0-3.3,0-4.87c0-36.37,0-72.74,0-109.11c0-6.82,2.91-10.7,7.97-10.7c5.06,0.01,7.94,3.88,7.95,10.72c0,0.8,0,1.59,0,2.39  c0,35.57,0,71.15,0,106.72c0,1.56,0,3.11,0,4.8c4.68,0,8.97,0,13.22,0c0-58.13,0-116.01,0-174.64  c-11.48,11.52-22.48,22.46-33.35,33.54c-2.99,3.05-6.27,4.42-10.58,4.42c-76.46-0.08-152.92-0.06-229.38-0.06  c-8.07,0-10.71-2.66-10.71-10.8c-0.01-24.69,0-49.38,0-74.07c0-1.39,0-2.79,0-4.33c-15.74,0-30.86-0.01-45.99,0  c-12.36,0.01-18.52,6.21-18.52,18.64c-0.01,67.7,0,135.4,0,203.09c0,1.4,0,2.81,0,4.14c4.83,0,9.12,0,13.54,0  c0-3.89,0-7.47,0-11.05c0-63.32,0-126.64,0-189.95c0-7.8,2.75-10.52,10.57-10.53c6.77-0.02,13.54-0.06,20.31,0.01  c5.67,0.06,9.08,3.03,9.16,7.79c0.09,4.95-3.37,8.03-9.24,8.11C77.92,140.36,73.15,140.31,68.1,140.31z M25.01,352.29  c1.72,16.82,13.27,26.94,30.5,26.94c104.83,0.01,209.67,0.01,314.5-0.02c2.51,0,5.05-0.17,7.52-0.61  c12.91-2.33,22.94-13.97,22.69-26.31C275.25,352.29,150.27,352.29,25.01,352.29z"></path>	<path d="M242.92,114.62c0.09-21.72,18.21-39.7,39.94-39.61c21.56,0.09,39.84,18.53,39.65,40.02c-0.19,21.64-18.45,39.7-40.06,39.61  C260.77,154.55,242.83,136.4,242.92,114.62z M258.87,114.84c0.01,13.11,10.62,23.79,23.69,23.85  c12.93,0.06,23.78-10.66,23.99-23.69c0.21-12.94-10.97-24.13-24.02-24.05C269.46,91.03,258.86,101.73,258.87,114.84z"></path>	<path d="M165.98,75.04c13.28,0.38,23.84,9.93,24.7,22.34c0.35,5.02-2.18,8.57-6.64,9.3c-4.21,0.69-7.73-2.12-8.88-7.09  c-1.62-7.01-7.28-10.32-13.62-7.85c-3.16,1.23-5.47,3.36-5.51,7.04c-0.04,3.87,2.33,6.14,5.7,7.27c1.97,0.66,4.16,0.74,6.26,0.99  c14.66,1.72,24.11,13.02,22.52,26.97c-1.24,10.86-11.28,19.63-23.51,20.53c-13.86,1.02-26.25-9.33-26.91-22.47  c-0.25-5.03,2.37-8.53,6.85-9.14c4.09-0.55,7.53,2.2,8.65,6.92c1.69,7.14,7.1,10.45,13.47,8.11c3.35-1.23,5.75-3.46,5.7-7.3  c-0.06-3.83-2.47-6.07-5.88-7.13c-2-0.62-4.17-0.69-6.27-0.95c-14.32-1.76-23.66-12.76-22.38-26.37  C141.35,84.24,152.99,74.67,165.98,75.04z"></path>	<path d="M214.76,90.93c0,5.48,0,10.46,0,15.93c4.78,0,9.38-0.04,13.98,0.01c5.87,0.06,9.48,3.09,9.52,7.89  c0.04,4.82-3.57,7.95-9.38,8.02c-4.61,0.06-9.23,0.01-14.07,0.01c0,5.36,0,10.34,0,15.93c5.02,0,10,0,14.98,0  c2.79,0,5.58-0.08,8.36,0.02c5.14,0.2,8.7,3.56,8.64,8.02c-0.06,4.48-3.6,7.74-8.8,7.86c-5.04,0.11-10.09,0.03-15.13,0.03  c-4.25,0-8.49,0-12.74,0c-8.97,0-11.48-2.55-11.48-11.69c-0.01-12.74,0-25.48,0-38.22c0-6.5-0.05-13.01,0.01-19.51  c0.07-7.22,3.03-10.2,10.14-10.22c9.69-0.03,19.38-0.1,29.06,0.03c6.56,0.08,10.52,5.33,8.29,10.82c-1.55,3.82-4.75,5.09-8.65,5.08  C230.05,90.91,222.63,90.93,214.76,90.93z"></path>	<path d="M380.33,114.32c0.41,12.91-10.09,23.93-23.19,24.35c-12.96,0.42-23.88-9.96-24.35-23.15  c-0.47-13.17,10.08-24.26,23.35-24.56C369.1,90.67,379.92,101.12,380.33,114.32z M356.58,106.91c-4.25-0.02-7.8,3.56-7.82,7.88  c-0.02,4.33,3.5,7.93,7.76,7.95c4.26,0.02,7.81-3.56,7.83-7.89C364.36,110.53,360.84,106.93,356.58,106.91z"></path>	<path d="M151.1,38.22c0.09,4.18-3.53,7.94-7.73,8.04c-4.19,0.1-7.88-3.5-7.95-7.76c-0.07-4.28,3.44-7.96,7.67-8.05  C147.24,30.36,151.01,34.02,151.1,38.22z"></path>	<path d="M212.31,252.61c-34.1,0-68.2,0-102.3,0c-0.8,0-1.59,0-2.39,0c-6.47-0.04-10.29-2.99-10.29-7.96  c0-4.97,3.82-7.96,10.28-7.96c69.93-0.01,139.85-0.01,209.78,0.02c1.7,0,3.5,0.12,5.08,0.67c3.33,1.16,5.1,3.68,5.1,7.27  c0,3.58-1.75,6.15-5.1,7.26c-1.83,0.61-3.91,0.68-5.87,0.68C281.83,252.62,247.07,252.61,212.31,252.61z"></path>	<path d="M281.67,292.43c-12.33,0-24.66-0.01-36.99,0.01c-3.9,0.01-7.11-1.26-8.66-5.06c-2.13-5.22,1.48-10.46,7.47-10.81  c3.7-0.22,7.42-0.06,11.13-0.06c21.08,0,42.16-0.01,63.23,0.01c5.94,0.01,9.31,2.54,9.71,7.16c0.45,5.2-2.98,8.69-8.92,8.73  C306.32,292.49,293.99,292.43,281.67,292.43z"></path>	<path d="M143.05,276.5c12.06,0,24.13,0.01,36.19-0.01c3.9-0.01,7.11,1.26,8.67,5.05c2.13,5.22-1.47,10.47-7.46,10.82  c-3.96,0.23-7.95,0.06-11.93,0.06c-19.88,0-39.77,0-59.65,0c-1.06,0-2.12,0.04-3.18-0.03c-4.87-0.32-8.31-3.61-8.31-7.93  c-0.01-4.32,3.42-7.8,8.3-7.91c7.42-0.17,14.85-0.06,22.27-0.06C132.98,276.5,138.02,276.5,143.05,276.5z"></path>	<path d="M212.72,292.36c-4.13-0.03-7.88-3.82-7.86-7.94c0.03-4.13,3.82-7.88,7.94-7.86c4.13,0.03,7.88,3.82,7.86,7.94  C220.63,288.63,216.84,292.39,212.72,292.36z"></path>	<path d="M212.91,357.74c11.15,0,22.3-0.07,33.44,0.03c6.63,0.06,10.65,5.1,8.55,10.64c-1.53,4.04-4.87,5.28-8.92,5.27  c-10.35-0.03-20.7-0.01-31.06-0.01c-11.94,0-23.89,0.07-35.83-0.03c-6.77-0.06-10.85-5.44-8.42-11.01c1.65-3.77,4.9-4.91,8.79-4.9  C190.62,357.76,201.77,357.74,212.91,357.74z"></path></g></svg>